<?xml version="1.0"?>
<svg xmlns="http://www.w3.org/2000/svg" height="512px" viewBox="-64 0 496 496" width="512px"><g><path d="m192.472656 369.335938 13.925782-18.574219-12.796876-9.59375-28.167968 37.542969 36.902344 36.90625 11.3125-11.3125-19.121094-19.121094c39.144531-5.183594 69.472656-38.695313 69.472656-79.222656h-16c0 32.414062-24.238281 59.207031-55.527344 63.375zm0 0" data-original="#000000" class="active-path" data-old_color="#000000" fill="#FFFFFF"/><path d="m248.023438 256.03125c-10.65625-13.894531-25.4375-23.917969-42.640626-28.527344-20.648437-5.527344-42.199218-2.695312-60.703124 7.992188l8 13.855468c28.082031-16.207031 63.398437-8.617187 82.648437 16.402344l-23.046875-2.777344-1.914062 15.886719 46.609374 5.609375 13.503907-50.417968-15.457031-4.144532zm0 0" data-original="#000000" class="active-path" data-old_color="#000000" fill="#FFFFFF"/><path d="m124.199219 280.433594 9.121093 21.34375 14.710938-6.28125-18.429688-43.160156-50.417968 13.503906 4.144531 15.457031 26.113281-6.992187c-15.074218 36.488281-1.21875 79.503906 33.878906 99.765624l8-13.855468c-28.074218-16.207032-39.152343-50.597656-27.121093-79.78125zm0 0" data-original="#000000" class="active-path" data-old_color="#000000" fill="#FFFFFF"/><path d="m368 152c0-10.414062-6.710938-19.214844-16-22.527344v-9.472656c0-66.167969-53.832031-120-120-120h-96c-66.167969 0-120 53.832031-120 120v9.472656c-9.289062 3.3125-16 12.113282-16 22.527344 0 10.609375 6.96875 19.527344 16.527344 22.6875l21.058594 252.632812c1.316406 15.878907 12.09375 29.007813 26.414062 34.207032v10.472656c0 13.230469 10.769531 24 24 24h192c13.230469 0 24-10.769531 24-24v-10.472656c14.320312-5.207032 25.097656-18.335938 26.414062-34.207032l21.058594-252.632812c9.558594-3.160156 16.527344-12.078125 16.527344-22.6875zm-136-136c5.457031 0 10.769531.550781 16 1.359375v54.640625c0 13.230469-10.769531 24-24 24h-80c-13.230469 0-24-10.769531-24-24v-54.640625c5.230469-.808594 10.542969-1.359375 16-1.359375zm-128 5.089844v50.910156c0 22.054688 17.945312 40 40 40h80c22.054688 0 40-17.945312 40-40v-50.910156c41.726562 13.535156 72 52.734375 72 98.910156v8h-304v-8c0-46.175781 30.273438-85.375 72-98.910156zm176 458.910156h-192c-4.40625 0-8-3.585938-8-8v-8h208v8c0 4.414062-3.59375 8-8 8zm34.472656-54.007812c-1.023437 12.34375-11.535156 22.007812-23.921875 22.007812h-213.101562c-12.386719 0-22.890625-9.664062-23.921875-22.007812l-20.832032-249.992188h302.609376zm29.527344-265.992188h-320c-4.40625 0-8-3.585938-8-8s3.59375-8 8-8h320c4.40625 0 8 3.585938 8 8s-3.59375 8-8 8zm0 0" data-original="#000000" class="active-path" data-old_color="#000000" fill="#FFFFFF"/><path d="m136 32h96v16h-96zm0 0" data-original="#000000" class="active-path" data-old_color="#000000" fill="#FFFFFF"/></g> </svg>
