<?xml version="1.0" encoding="UTF-8" standalone="no"?>
<svg
   xmlns:dc="http://purl.org/dc/elements/1.1/"
   xmlns:cc="http://creativecommons.org/ns#"
   xmlns:rdf="http://www.w3.org/1999/02/22-rdf-syntax-ns#"
   xmlns:svg="http://www.w3.org/2000/svg"
   xmlns="http://www.w3.org/2000/svg"
   xmlns:sodipodi="http://sodipodi.sourceforge.net/DTD/sodipodi-0.dtd"
   xmlns:inkscape="http://www.inkscape.org/namespaces/inkscape"
   height="512"
   viewBox="0 0 192 192"
   width="512"
   version="1.1"
   id="svg6"
   sodipodi:docname="recycle.svg"
   inkscape:version="0.92.3 (2405546, 2018-03-11)">
  <metadata
     id="metadata12">
    <rdf:RDF>
      <cc:Work
         rdf:about="">
        <dc:format>image/svg+xml</dc:format>
        <dc:type
           rdf:resource="http://purl.org/dc/dcmitype/StillImage" />
      </cc:Work>
    </rdf:RDF>
  </metadata>
  <defs
     id="defs10" />
  <sodipodi:namedview
     pagecolor="#ffffff"
     bordercolor="#666666"
     borderopacity="1"
     objecttolerance="10"
     gridtolerance="10"
     guidetolerance="10"
     inkscape:pageopacity="0"
     inkscape:pageshadow="2"
     inkscape:window-width="1920"
     inkscape:window-height="1017"
     id="namedview8"
     showgrid="false"
     inkscape:zoom="0.4609375"
     inkscape:cx="256"
     inkscape:cy="256"
     inkscape:window-x="2728"
     inkscape:window-y="-8"
     inkscape:window-maximized="1"
     inkscape:current-layer="svg6" />
  <path
     d="m128 32v-8a24.027 24.027 0 0 0 -24-24h-16a24.027 24.027 0 0 0 -24 24v8h-56v16h176v-16zm-48-8a8.009 8.009 0 0 1 8-8h16a8.009 8.009 0 0 1 8 8v8h-32z"
     id="path2"
     style="fill:#ffffff" />
  <path
     d="m30.467 170.651a23.976 23.976 0 0 0 23.854 21.349h83.358a23.976 23.976 0 0 0 23.854-21.35l12.739-114.65h-156.544zm97.561-99.316 15.944 1.33-8 96-15.944-1.33zm-40.028.665h16v96h-16zm-24.028-.665 8 96-15.944 1.33-8-96z"
     id="path4"
     style="fill:#ffffff" />
</svg>
